<?xml version="1.0" standalone="no"?>
<!DOCTYPE svg PUBLIC "-//W3C//DTD SVG 20010904//EN"
 "http://www.w3.org/TR/2001/REC-SVG-20010904/DTD/svg10.dtd">
<svg version="1.0" xmlns="http://www.w3.org/2000/svg"
 width="512.000000pt" height="512.000000pt" viewBox="0 0 512.000000 512.000000"
 preserveAspectRatio="xMidYMid meet">
<metadata>
Created by potrace 1.14, written by Peter Selinger 2001-2017
</metadata>
<g transform="translate(0.000000,512.000000) scale(0.100000,-0.100000)"
fill="#000000" stroke="none">
<path d="M3260 5110 c-67 -19 -121 -62 -283 -225 -146 -146 -177 -172 -187
-160 -29 35 -106 67 -175 72 -119 9 -162 -14 -323 -171 -165 -161 -179 -186
-156 -285 3 -14 164 -183 390 -410 l385 -385 -668 -668 -668 -668 -38 38 c-21
20 -191 189 -377 375 -203 203 -353 345 -376 356 -45 22 -94 19 -139 -9 -17
-11 -87 -77 -156 -147 -103 -106 -128 -138 -146 -185 -30 -79 -27 -174 10
-245 15 -28 31 -54 37 -58 5 -3 10 -11 10 -16 0 -6 -77 -88 -171 -182 -114
-115 -180 -189 -196 -222 -46 -89 -35 -225 24 -303 13 -18 121 -130 239 -248
l215 -216 -175 -175 c-161 -161 -176 -179 -182 -218 -3 -24 -1 -58 5 -77 12
-35 439 -475 496 -509 33 -21 89 -25 129 -10 13 6 101 86 194 179 l170 170
228 -227 c265 -263 283 -275 409 -276 119 0 149 18 345 213 91 90 171 168 177
174 9 7 21 3 42 -15 76 -63 219 -74 316 -24 32 16 97 73 181 159 147 149 163
176 144 250 -10 38 -57 88 -395 428 l-383 385 667 667 668 666 374 -374 c206
-207 387 -382 403 -391 44 -23 94 -24 135 -3 20 10 93 76 163 147 148 150 178
200 178 300 0 70 -29 160 -60 188 -11 10 -20 21 -20 24 0 4 78 85 173 181 193
196 217 232 224 339 4 52 0 79 -17 125 -20 53 -45 82 -251 290 -126 127 -229
234 -229 238 0 4 74 82 165 173 91 91 170 177 175 191 16 41 11 97 -11 133
-31 51 -459 471 -496 487 -84 36 -118 17 -315 -180 l-167 -167 -226 225 c-255
255 -287 278 -395 281 -36 2 -76 -1 -90 -5z"/>
</g>
</svg>
